HIERARCHY
ROOT Hips
{
 OFFSET 0.000000 0.000000 0.000000
 CHANNELS 6 Xposition Yposition Zposition Yrotation Xrotation Zrotation
 JOINT Chest
 {
  OFFSET 0.000000 10.366939 -0.000175
  CHANNELS 3 Yrotation Xrotation Zrotation
  JOINT Chest2
  {
   OFFSET 0.000000 11.433790 0.000318
   CHANNELS 3 Yrotation Xrotation Zrotation
   JOINT Chest3
   {
    OFFSET 0.000000 10.331133 0.000000
    CHANNELS 3 Yrotation Xrotation Zrotation
    JOINT Chest4
    {
     OFFSET 0.000000 10.331133 0.000000
     CHANNELS 3 Yrotation Xrotation Zrotation
     JOINT Neck
     {
      OFFSET 0.000000 14.530095 0.000000
      CHANNELS 3 Yrotation Xrotation Zrotation
      JOINT Head
      {
       OFFSET 0.000000 9.616255 0.000757
       CHANNELS 3 Yrotation Xrotation Zrotation
       End Site
       {
        OFFSET 0.000000 18.398191 0.000395
       }
      }
     }
     JOINT RightCollar
     {
      OFFSET -3.159467 8.107572 0.000000
      CHANNELS 3 Yrotation Xrotation Zrotation
      JOINT RightShoulder
      {
       OFFSET -14.759419 0.000000 0.000000
       CHANNELS 3 Yrotation Xrotation Zrotation
       JOINT RightElbow
       {
        OFFSET 0.000000 -31.561777 0.000000
        CHANNELS 3 Yrotation Xrotation Zrotation
        JOINT RightWrist
        {
         OFFSET 0.000000 -25.811607 -0.000000
         CHANNELS 3 Yrotation Xrotation Zrotation
         End Site
         {
          OFFSET 0.000000 -19.296333 0.000000
         }
        }
       }
      }
     }
     JOINT LeftCollar
     {
      OFFSET 3.159467 8.107572 0.000000
      CHANNELS 3 Yrotation Xrotation Zrotation
      JOINT LeftShoulder
      {
       OFFSET 14.759419 0.000000 0.000000
       CHANNELS 3 Yrotation Xrotation Zrotation
       JOINT LeftElbow
       {
        OFFSET 0.000000 -31.561777 0.000000
        CHANNELS 3 Yrotation Xrotation Zrotation
        JOINT LeftWrist
        {
         OFFSET 0.000000 -25.811607 -0.000000
         CHANNELS 3 Yrotation Xrotation Zrotation
         End Site
         {
          OFFSET 0.000000 -19.296333 0.000000
         }
        }
       }
      }
     }
    }
   }
  }
 }
 JOINT RightHip
 {
  OFFSET -8.420485 0.000859 0.000088
  CHANNELS 3 Yrotation Xrotation Zrotation
  JOINT RightKnee
  {
   OFFSET 0.000000 -43.611855 -0.000083
   CHANNELS 3 Yrotation Xrotation Zrotation
   JOINT RightAnkle
   {
    OFFSET 0.000000 -42.630478 -0.000140
    CHANNELS 3 Yrotation Xrotation Zrotation
    JOINT RightToe
    {
     OFFSET 0.000000 -7.539428 17.119853
     CHANNELS 3 Yrotation Xrotation Zrotation
     End Site
     {
      OFFSET 0.000000 -1.595212 6.940629
     }
    }
   }
  }
 }
 JOINT LeftHip
 {
  OFFSET 8.420485 0.000859 0.000088
  CHANNELS 3 Yrotation Xrotation Zrotation
  JOINT LeftKnee
  {
   OFFSET 0.000000 -43.611855 -0.000083
   CHANNELS 3 Yrotation Xrotation Zrotation
   JOINT LeftAnkle
   {
    OFFSET 0.000000 -42.630478 -0.000140
    CHANNELS 3 Yrotation Xrotation Zrotation
    JOINT LeftToe
    {
     OFFSET 0.000000 -7.539428 17.119853
     CHANNELS 3 Yrotation Xrotation Zrotation
     End Site
     {
      OFFSET 0.000000 -1.595212 6.940629
     }
    }
   }
  }
 }
}
MOTION
Frames: 5
Frame Time: 0.008333
-21.092306 94.208555 127.947130 67.802326 -8.201090 1.614061 0.800898 6.765759 0.632710 0.346076 3.008088 0.269004 0.346076 3.008088 0.269004 0.258172 2.256220 0.200002 -3.898642 22.639364 -1.629134 -6.590118 5.860881 -1.881013 -0.587457 6.684031 12.715367 -15.141994 -11.653716 -25.861829 10.557009 4.570393 -1.210007 14.096953 -18.333827 -15.496089 5.513983 5.916509 -1.591825 10.635760 -12.038716 6.111199 23.806090 11.262983 8.293052 -43.702461 -25.072913 21.337073 -6.791811 12.654467 -0.730226 -0.941683 11.642772 -1.814151 -8.866770 -20.527136 3.271796 -0.004577 0.445799 0.044835 -2.944675 -6.789800 1.806103 -1.355993 27.672479 -6.641144 0.953374 -8.442973 -2.268399 -0.012817 -0.777181 0.542067
-21.036058 94.190616 127.949414 68.036954 -8.082658 1.664337 0.872531 6.741427 0.584706 0.378592 2.997281 0.246710 0.378592 2.997281 0.246710 0.282669 2.248115 0.183132 -3.929160 22.548691 -1.650535 -6.639737 5.692293 -1.907680 -0.604684 6.636223 12.657267 -15.173334 -11.720884 -25.700898 10.189456 4.344790 -1.062480 14.047898 -18.361613 -15.280455 5.541444 5.882196 -1.614392 10.583993 -11.982998 6.317247 23.727460 11.187352 8.036123 -43.673019 -25.046111 21.349561 -6.954506 12.695729 -0.802955 -0.952954 11.495555 -1.798203 -8.920680 -20.630677 3.282936 -0.004366 0.421222 0.043495 -3.428334 -7.443723 1.889059 -1.061637 28.536422 -6.858307 0.971767 -8.319899 -2.448311 -0.018178 -0.975612 0.637945
-20.947233 94.174957 127.948155 68.246650 -7.954441 1.715302 0.953445 6.719279 0.541467 0.415150 2.987450 0.226398 0.415150 2.987450 0.226398 0.310185 2.240743 0.167729 -3.944917 22.459768 -1.673607 -6.662247 5.526623 -1.941412 -0.623010 6.631565 12.620880 -15.125879 -11.800185 -25.579374 9.767230 4.100741 -0.882296 14.025634 -18.351357 -15.087240 5.572110 5.866304 -1.629208 10.538693 -11.937882 6.518062 23.632646 11.106938 7.852153 -43.596898 -25.059769 21.302826 -7.091207 12.734718 -0.877822 -0.977024 11.352433 -1.775572 -8.952886 -20.730278 3.283595 -0.004298 0.389169 0.048245 -3.884670 -8.052958 1.945663 -0.752741 29.384075 -7.057304 1.010126 -8.182090 -2.592722 -0.024742 -1.174716 0.699555
-20.822612 94.160814 127.944166 68.426592 -7.847088 1.766778 1.047469 6.704634 0.504622 0.457418 2.980967 0.208723 0.457418 2.980967 0.208723 0.341968 2.235883 0.154274 -3.949393 22.367794 -1.702683 -6.662728 5.354846 -1.988935 -0.627767 6.614615 12.578170 -15.038053 -11.879869 -25.476750 9.352993 3.797977 -0.675866 13.988179 -18.333360 -14.891480 5.606601 5.844732 -1.654933 10.486162 -11.912172 6.698707 23.607674 11.054957 7.612251 -43.624259 -25.035489 21.349868 -7.189252 12.782395 -0.954447 -1.015924 11.217941 -1.758713 -8.986471 -20.800225 3.290685 -0.004248 0.344911 0.055676 -4.295573 -8.661257 2.001509 -0.473715 30.278418 -7.269616 1.078118 -8.035340 -2.717701 -0.031663 -1.362305 0.739380
-20.661496 94.148147 127.940019 68.581798 -7.712819 1.817572 1.154173 6.688412 0.475513 0.505201 2.973800 0.194307 0.505201 2.973800 0.194307 0.377870 2.230512 0.143237 -3.942758 22.279383 -1.733500 -6.642599 5.189430 -2.042825 -0.616101 6.612268 12.540742 -14.870154 -11.958863 -25.409046 8.932565 3.521745 -0.471203 13.961612 -18.310781 -14.708551 5.633241 5.828197 -1.675964 10.455097 -11.883851 6.862113 23.551374 10.991355 7.447058 -43.594695 -25.050044 21.344629 -7.237588 12.810325 -1.027796 -1.082719 11.089342 -1.736962 -9.059410 -20.849303 3.311065 -0.004254 0.286212 0.066793 -4.681533 -9.249598 2.045376 -0.222506 31.148776 -7.489224 1.199681 -7.901741 -2.839328 -0.042963 -2.344536 1.851089
